<svg xmlns="http://www.w3.org/2000/svg" x="0px" y="0px" width="66px" height="58px" viewBox="0 0 66 58" enable-background="new 0 0 66 58">
<g>
<path fill="#E35640" d="M56.845,6.834c-0.494-0.305-1.094-0.173-1.404,0.288l-8.604,13.117c-0.704-0.509-1.444-0.949-2.217-1.338
		c0.023-0.058,0.055-0.109,0.07-0.163l3.743-12.981c0.175-0.536-0.139-1.094-0.692-1.251c-0.526-0.155-1.067,0.158-1.237,0.695
		l-3.728,12.919c-1.657-0.594-3.457-0.929-5.33-0.929c-4.858,0-8.965,1.86-11.932,5.354c-1.25-0.514-2.64-0.798-4.089-0.798
		c-5.978,0-10.89,4.877-10.899,10.875H9.827c-0.271,0-0.541,0.101-0.711,0.292c-0.208,0.193-0.302,0.457-0.3,0.721
		C8.898,41.53,13.88,48.987,21.063,52.18v2.78c0,0.553,0.483,1.004,1.02,1.004H42.01c0.577,0,1.02-0.451,1.02-1.004v-2.78
		c7.183-3.192,12.165-10.648,12.278-18.546c0.002-0.264-0.123-0.527-0.294-0.721c-0.207-0.191-0.443-0.292-0.718-0.292h-0.771
		c-0.202-4.38-2.125-8.3-5.131-11.097l8.709-13.296C57.417,7.761,57.302,7.135,56.845,6.834z M21.426,23.758
		c4.888,0,8.883,3.975,8.895,8.863h-0.839c-0.012-4.427-3.628-8.017-8.056-8.017c-4.396,0-8.011,3.59-8.021,8.017h-0.839
		C12.575,27.732,16.531,23.758,21.426,23.758z M42.856,32.621c-0.305-2.716-2.61-4.825-5.41-4.825c-2.385,0-4.432,1.553-5.181,3.707
		c-0.082-0.9-0.31-1.763-0.581-2.582c1.344-1.809,3.48-2.883,5.762-2.883c3.771,0,6.868,2.893,7.213,6.583H42.856z M40.855,32.621
		h-6.819c0.321-1.604,1.73-2.81,3.41-2.81C39.142,29.812,40.536,31.017,40.855,32.621z M46.695,32.621
		c-0.349-4.804-4.364-8.599-9.249-8.599c-2.584,0-4.985,1.082-6.738,2.922c-0.286-0.45-0.556-0.876-0.895-1.277
		c1.961-2.088,4.585-3.199,7.633-3.199c5.731,0,10.449,4.496,10.804,10.153H46.695z M26.021,32.621
		c-0.01-2.513-2.075-4.548-4.595-4.548c-2.487,0-4.552,2.035-4.563,4.548h-1.458c0.029-3.314,2.737-5.999,6.021-5.999
		c3.316,0,6.003,2.685,6.018,5.999H26.021z M23.982,32.621h-5.081c0.012-1.405,1.148-2.54,2.524-2.54
		C22.834,30.081,23.973,31.216,23.982,32.621z M23.103,53.946v-1.244h17.918v1.244H23.103z M41.397,50.688H22.723
		c-6.491-2.497-11.333-9.119-11.867-16.059h42.382C52.741,41.571,47.897,48.191,41.397,50.688z M51.486,32.621h-1.239
		c-0.354-6.766-5.958-12.168-12.801-12.168c-3.623,0-6.723,1.317-9.064,3.789c-0.327-0.261-0.674-0.508-1.027-0.74
		c2.57-2.842,5.952-4.303,10.092-4.303C44.986,19.198,51.13,25.161,51.486,32.621z"></path>
<path fill="#E35640" d="M12.61,38.206c0.729,2.717,2.164,5.203,4.127,7.209c0.179,0.199,0.448,0.295,0.72,0.295
		c0.261,0,0.497-0.093,0.712-0.285c0.394-0.39,0.397-1.032,0.008-1.431c-1.743-1.746-2.979-3.933-3.631-6.306
		c-0.128-0.537-0.701-0.859-1.222-0.713C12.767,37.12,12.479,37.672,12.61,38.206z"></path>
<path fill="#E35640" d="M20.586,48.69c0.199,0.135,0.386,0.194,0.61,0.194c0.316,0,0.591-0.138,0.807-0.409
		c0.332-0.444,0.244-1.079-0.233-1.403l-1.391-1.04c-0.478-0.329-1.079-0.228-1.413,0.216c-0.333,0.455-0.245,1.083,0.195,1.413
		L20.586,48.69z"></path>
</g>
</svg>