<svg xmlns="http://www.w3.org/2000/svg" x="0px" y="0px" width="66px" height="58px" viewBox="0 0 66 58" enable-background="new 0 0 66 58">
<g>
<path fill="#E35640" d="M34.119,42.677c0.179,0.182,0.452,0.311,0.727,0.311c0.225,0,0.491-0.122,0.703-0.292
		c0.397-0.386,0.408-1.035,0.02-1.432l-3.142-3.224c-0.388-0.399-0.998-0.408-1.396-0.021c-0.402,0.388-0.432,1.035-0.021,1.432
		L34.119,42.677z"></path>
<path fill="#E35640" d="M38.25,46.916c0.176,0.22,0.45,0.312,0.723,0.312c0.229,0,0.494-0.085,0.704-0.294
		c0.399-0.387,0.407-1.035,0.021-1.432l-1.023-1.013c-0.386-0.432-1.035-0.441-1.431-0.052c-0.397,0.412-0.405,1.031-0.02,1.428
		L38.25,46.916z"></path>
<path fill="#E35640" d="M27.872,36.262c0.215,0.183,0.45,0.276,0.724,0.276c0.266,0,0.518-0.088,0.706-0.257
		c0.397-0.387,0.405-1.035,0.02-1.433l-3.104-3.226c-0.388-0.397-1.035-0.406-1.433-0.02c-0.396,0.387-0.405,1.035-0.018,1.433
		L27.872,36.262z"></path>
<path fill="#E35640" d="M46.245,45.026c0.213,0.213,0.446,0.302,0.714,0.302c0.271,0,0.503-0.089,0.719-0.306
		c0.389-0.392,0.389-1.041-0.004-1.431l-2.519-2.467c-0.394-0.392-1.03-0.389-1.429,0.003c-0.393,0.394-0.391,1.003,0.004,1.394
		L46.245,45.026z"></path>
<path fill="#E35640" d="M40.572,39.383c0.209,0.205,0.446,0.3,0.715,0.3c0.268,0,0.503-0.097,0.718-0.304
		c0.39-0.393,0.39-1.042-0.004-1.433l-3.193-3.139c-0.394-0.392-1.005-0.389-1.398,0.003c-0.392,0.394-0.388,1.042,0.005,1.433
		L40.572,39.383z"></path>
<path fill="#E35640" d="M34.226,33.065c0.213,0.214,0.443,0.301,0.714,0.301c0.27,0,0.501-0.089,0.716-0.304
		c0.392-0.394,0.39-1.04-0.002-1.433l-3.17-3.14c-0.417-0.391-1.026-0.387-1.417,0.004c-0.392,0.393-0.392,1.042,0.004,1.433
		L34.226,33.065z"></path>
<path fill="#E35640" d="M41.365,30.352c0.211,0.173,0.438,0.292,0.704,0.292c0.272,0,0.511-0.129,0.727-0.313
		c0.385-0.398,0.375-1.047-0.021-1.432l-3.237-3.097c-0.395-0.385-1.012-0.377-1.42,0.021c-0.372,0.398-0.355,1.047,0.044,1.433
		L41.365,30.352z"></path>
<path fill="#E35640" d="M51.008,38.249c-0.385,0.396-0.375,1.046,0.023,1.432l0.772,0.749c0.175,0.169,0.438,0.264,0.704,0.264
		c0.24,0,0.512-0.103,0.724-0.285c0.388-0.397,0.378-1.046-0.022-1.432l-0.779-0.75C52.019,37.843,51.394,37.851,51.008,38.249z"></path>
<path fill="#E35640" d="M47.795,36.564c0.215,0.188,0.445,0.272,0.704,0.272c0.276,0,0.542-0.092,0.729-0.313
		c0.385-0.397,0.373-1.009-0.023-1.394l-3.232-3.136c-0.399-0.384-1.01-0.375-1.399,0.025c-0.386,0.423-0.372,1.044,0.025,1.429
		L47.795,36.564z"></path>
<path fill="#E35640" d="M58.141,33.536c-0.02-0.055-0.063-0.092-0.104-0.138c-0.825-3.375-3.223-6.433-5.751-8.039
		c-6.093-3.942-13.747-3.708-22.092,0.567c-0.858,0.438-1.686,0.95-2.51,1.423c-1.615,0.905-3.104,1.8-4.769,2.365
		c-0.647,0.24-1.262,0.434-1.911,0.662c-2.199,0.733-4.466,1.491-6.665,2.672c-3.404,1.849-5.602,4.577-6.007,7.519
		c-0.064,0.538-0.061,1.044-0.027,1.551c-0.07,0.178-0.117,0.329-0.107,0.535c0.263,3.821,2.221,7.568,4.987,9.528
		c2.579,1.826,7.356,3.68,16.092,3.678c2.99,0,6.436-0.232,10.437-0.725c0.258-0.032,0.484-0.057,0.604-0.069
		c14.671-1.535,17.092-9.001,17.876-11.47C59.233,40.391,59.775,37.93,58.141,33.536z M10.351,40.855
		c0.449-3.27,3.605-5.296,4.965-6.025c2.021-1.106,4.211-1.838,6.336-2.548c0.622-0.194,1.283-0.427,1.941-0.671
		c1.853-0.621,3.488-1.597,5.075-2.506c0.83-0.497,1.637-0.955,2.464-1.38c4.087-2.12,7.948-3.155,11.495-3.155
		c3.135,0,5.994,0.828,8.566,2.465c2.939,1.882,5.618,6.05,5.056,9.772c-1.022,6.47-7.458,9.083-13.422,11.048
		c-5.647,1.811-11.747,2.061-16.458,2.061c-1.324,0-2.679-0.019-3.999-0.044c-3.587-0.067-6.327-0.769-8.428-2.141
		C11.874,46.396,9.945,43.742,10.351,40.855z M40.129,53.037c-0.164,0.014-0.372,0.042-0.682,0.112
		c-15.018,1.903-21.924-0.359-25.104-2.597c-0.317-0.237-0.587-0.506-0.88-0.755c2.309,1.307,5.222,2.005,8.838,2.073
		c1.364,0.025,2.732,0.044,4.068,0.044c4.845,0,11.167-0.221,17.091-2.141c5.146-1.704,10.657-3.895,13.311-8.498
		c-0.128,0.538-0.317,1.108-0.489,1.728C55.585,45.118,53.474,51.663,40.129,53.037z"></path>
<path fill="#E35640" d="M21.922,45.75c3.225,0,5.838-2.091,5.838-4.607c0-2.556-2.613-4.646-5.838-4.646
		c-3.193,0-5.808,2.091-5.808,4.646C16.114,43.659,18.729,45.75,21.922,45.75z M21.922,38.534c2.079,0,3.833,1.187,3.833,2.608
		c0,1.383-1.754,2.608-3.833,2.608c-2.049,0-3.809-1.226-3.809-2.608C18.113,39.721,19.873,38.534,21.922,38.534z"></path>
<path fill="#E35640" d="M28.578,44.873c-0.392,0.392-0.392,1.002,0,1.393l1.694,1.698c0.181,0.176,0.45,0.303,0.695,0.303
		c0.256,0,0.525-0.127,0.702-0.303c0.391-0.391,0.391-1.04,0-1.432l-1.659-1.659C29.619,44.468,28.97,44.468,28.578,44.873z"></path>
<path fill="#E35640" d="M50.088,32.374c0.216,0.215,0.479,0.303,0.717,0.303c0.27,0,0.537-0.088,0.716-0.303
		c0.392-0.392,0.392-1.001,0-1.394l-3.147-3.186c-0.392-0.392-1.04-0.392-1.432,0c-0.391,0.392-0.391,1.04,0,1.432L50.088,32.374z"></path>
</g>
</svg>