<svg xmlns="http://www.w3.org/2000/svg" x="0px" y="0px" width="66px" height="47.61px" viewBox="0 0 66 47.61" enable-background="new 0 0 66 47.61">
<g>
<path fill="none" stroke="#E4573F" stroke-width="2" d="
		M44.751,29.223c-2.295,4.002-6.793,4.796-9.929,7.932c-1.712,1.716-1.943,4.172-1.976,8.002c-0.032-3.83-0.265-6.286-1.976-8.002
		c-3.135-3.136-7.621-3.93-9.915-7.932c0,0-0.298,9.9,1.983,13.881c2.259,3.943,9.763,3.965,9.9,3.965l0,0h0.007h0.007l0,0
		c0.137,0,7.654-0.021,9.915-3.965C45.05,39.123,44.751,29.223,44.751,29.223z"></path>
<path fill="none" stroke="#E4573F" stroke-width="2" d="
		M44.616,23.756c0.209-2.973,0.135-5.447,0.135-5.447c-1.146,2.002-2.845,3.203-4.647,4.291c-1.805,1.092-3.712,2.072-5.281,3.641
		c-0.855,0.855-1.341,1.896-1.617,3.206c-0.276,1.308-0.342,2.88-0.358,4.794c-0.014-1.914-0.082-3.486-0.357-4.794
		c-0.277-1.31-0.764-2.351-1.618-3.206c-1.569-1.568-3.473-2.549-5.274-3.641c-1.799-1.088-3.494-2.289-4.641-4.291
		c0,0-0.073,2.475,0.136,5.447"></path>
<path fill="none" stroke="#E4573F" stroke-width="2" d="
		M44.616,12.84c0.209-2.972,0.135-5.447,0.135-5.447c-1.146,2.003-2.845,3.203-4.647,4.291c-1.805,1.092-3.712,2.072-5.281,3.641
		c-0.855,0.856-1.341,1.897-1.617,3.207c-0.276,1.307-0.342,2.88-0.358,4.795c-0.014-1.915-0.082-3.488-0.357-4.795
		c-0.277-1.31-0.764-2.351-1.618-3.207c-1.569-1.568-3.473-2.549-5.274-3.641c-1.799-1.088-3.494-2.288-4.641-4.291
		c0,0-0.073,2.476,0.136,5.447"></path>
<line x1="32.854" y1="47.068" x2="32.854" y2="55"></line>
</g>
</svg>