<svg xmlns="http://www.w3.org/2000/svg" x="0px" y="0px" width="66px" height="58px" viewBox="0 0 66 58" enable-background="new 0 0 66 58">
<g>
<path fill="#E35640" d="M44.521,25.934c2.712,0,4.931-2.218,4.931-4.946c0-2.716-2.219-4.933-4.931-4.933
		c-2.714,0-4.931,2.217-4.931,4.933C39.59,23.715,41.807,25.934,44.521,25.934z M44.608,23.419c-0.513,0-0.938-0.426-0.938-0.957
		c0-0.528,0.425-0.958,0.938-0.958c0.542,0,0.976,0.43,0.976,0.958C45.584,22.993,45.15,23.419,44.608,23.419z M44.521,18.071
		c1.601,0,2.93,1.312,2.93,2.916c0,0.155-0.02,0.307-0.054,0.458c-0.439-1.133-1.502-1.953-2.788-1.953
		c-1.42,0-2.593,0.997-2.903,2.316c-0.066-0.27-0.115-0.533-0.115-0.822C41.59,19.383,42.917,18.071,44.521,18.071z"></path>
<path fill="#E35640" d="M61.957,23.151c-0.203-0.516-0.816-0.739-1.308-0.52l-8.302,3.675c1.002-1.513,1.622-3.346,1.622-5.32
		c0-5.203-4.23-9.452-9.449-9.452c-1.367,0-2.636,0.299-3.796,0.801l4.935-7.211c0.321-0.455,0.179-1.087-0.271-1.395
		c-0.454-0.316-1.092-0.199-1.391,0.259L18.51,41.247L4.604,47.375c-0.534,0.211-0.739,0.812-0.538,1.311
		c0.188,0.374,0.558,0.612,0.941,0.612c0.123,0,0.247-0.025,0.403-0.077l10.932-4.832L9.37,54.543
		c-0.283,0.449-0.178,1.089,0.272,1.409c0.192,0.106,0.374,0.157,0.586,0.157c0.289,0,0.611-0.137,0.824-0.431l8.771-12.828
		l41.633-18.374C61.951,24.256,62.197,23.664,61.957,23.151z M51.969,20.987c0,4.104-3.341,7.446-7.448,7.446
		c-4.105,0-7.449-3.342-7.449-7.446c0-4.093,3.344-7.434,7.449-7.434C48.628,13.554,51.969,16.895,51.969,20.987z M35.092,20.566
		c-0.007,0.146-0.021,0.29-0.021,0.421c0,4.769,3.522,8.707,8.096,9.351l-21.174,9.348L35.092,20.566z"></path>
</g>
</svg>