<svg xmlns="http://www.w3.org/2000/svg" x="0px" y="0px" width="66px" height="58px" viewBox="0 0 66 58" enable-background="new 0 0 66 58">
<path fill="#E35640" d="M54.465,34.375c-0.211-0.34-1.277-2.076-3.772-3.882c-2.667-1.906-4.348-2.333-4.51-2.381
	c-0.169-0.033-0.295-0.031-0.415-0.008c-0.004,0-0.008,0-0.01,0c0-0.019,0.006-0.036,0.006-0.055c0-2.83-2.061-5.19-4.739-5.695
	c0.308-1.721,1.26-3.33,2.737-4.271c0.496-0.303,0.62-0.923,0.312-1.389c-0.307-0.471-0.902-0.611-1.401-0.307
	c-2.018,1.301-3.328,3.564-3.643,5.949c-2.79,0.442-4.889,2.828-4.889,5.713c0,0.736,0.136,1.436,0.399,2.082l-22.201,4.074
	c-0.223,0.034-0.37,0.145-0.533,0.275c-0.251,0.18-0.462,0.482-0.462,0.838V54.79c0,0.555,0.44,1.014,1.015,1.017l41.373,0.219
	c0.002,0,0.004,0,0.005,0c0.268,0,0.506-0.112,0.715-0.299c0.169-0.189,0.271-0.441,0.271-0.71v-19.96
	C54.722,34.804,54.623,34.562,54.465,34.375z M13.344,39.336h39.373v4.48c-1.126,1.291-3.131,2.205-4.818,1.41
	c-0.378-0.179-0.761-0.449-1.163-0.737c-0.901-0.653-1.954-1.393-3.324-1.258c-1.095,0.098-1.96,0.642-2.733,1.126
	c-0.336,0.203-0.671,0.408-1.02,0.57c-1.074,0.502-1.89,0.231-3.26-0.566l-0.295-0.168c-0.906-0.528-1.834-1.078-3.05-0.949
	c-1.259-0.127-2.163,0.422-3.05,0.949l-0.295,0.168c-1.409,0.797-2.209,1.07-3.299,0.566c-0.349-0.162-0.684-0.367-1.017-0.57
	c-0.776-0.484-1.641-1.028-2.736-1.126c-1.324-0.136-2.384,0.604-3.324,1.258c-0.401,0.288-0.785,0.559-1.163,0.737
	c-1.653,0.803-3.704-0.122-4.826-1.418V39.336z M52.717,36.078v1.242H13.344v-1.006L52.717,36.078z M13.344,46.45
	c1.038,0.665,2.241,1.097,3.506,1.097c0.741-0.002,1.487-0.156,2.182-0.5c0.55-0.25,1.014-0.591,1.463-0.92
	c0.729-0.511,1.343-0.965,1.988-0.897c0.601,0.067,1.227,0.443,1.885,0.839c0.381,0.234,0.774,0.477,1.201,0.682
	c2.025,0.955,3.671,0.208,5.154-0.646l0.266-0.173c0.889-0.498,1.354-0.755,1.906-0.677c0.119,0.014,0.199,0.014,0.279,0
	c0.595-0.085,1.057,0.178,1.904,0.676l0.307,0.174c1.481,0.854,3.088,1.604,5.154,0.646c0.427-0.204,0.819-0.447,1.201-0.681
	c0.66-0.396,1.247-0.772,1.885-0.84c0.629-0.06,1.221,0.386,1.949,0.897c0.449,0.329,0.952,0.67,1.472,0.92
	c1.923,0.915,4.046,0.461,5.671-0.604v4.364H13.344V46.45z M38.984,24.395c0.05,0.458,0.129,0.91,0.252,1.359
	c0.156,0.429,0.554,0.71,0.978,0.71c0.088,0,0.177-0.017,0.304-0.051c0.517-0.159,0.822-0.722,0.638-1.249
	c-0.066-0.248-0.103-0.49-0.139-0.732c1.559,0.461,2.708,1.902,2.708,3.618c0,2.091-1.683,3.792-3.793,3.792
	c-2.079,0-3.791-1.701-3.791-3.792C36.141,26.296,37.338,24.827,38.984,24.395z M39.932,33.858c2.459,0,4.521-1.513,5.37-3.649
	l0.526-0.1c0.374,0.12,1.681,0.598,3.697,2.025c0.958,0.695,1.672,1.373,2.165,1.934l-28.413,0.174l12.407-2.273
	C36.754,33.121,38.262,33.858,39.932,33.858z M13.344,53.794v-0.97h39.373v1.18L13.344,53.794z"></path>
</svg>