<svg xmlns="http://www.w3.org/2000/svg" x="0px" y="0px" width="66px" height="58px" viewBox="0 0 66 58" enable-background="new 0 0 66 58">
<path fill="#E35640" d="M53.438,13.548c0.28-0.303,0.343-0.723,0.197-1.089c-0.184-0.365-0.545-0.615-0.94-0.615h-8.469l3.813-6.667
	c0.288-0.472,0.098-1.097-0.372-1.349C47.193,3.54,46.565,3.69,46.28,4.201l-4.368,7.643H14.764c-0.397,0-0.76,0.25-0.904,0.615
	c-0.143,0.366-0.082,0.786,0.158,1.089l18.71,20.51v18.979h-8.578c-0.536,0-0.98,0.443-0.98,0.98c0,0.576,0.444,1.019,0.98,1.019
	h19.156c0.577,0,1.02-0.442,1.02-1.019c0-0.537-0.442-0.98-1.02-0.98h-8.54V34.058L53.438,13.548z M35.281,28.002
	c-1.385,0-2.502-1.116-2.502-2.475c0-1.374,1.117-2.492,2.502-2.492c1.386,0,2.503,1.118,2.503,2.492
	C37.784,26.886,36.667,28.002,35.281,28.002z M39.78,25.572c0-0.012,0.004-0.021,0.004-0.045c0-1.332-0.603-2.507-1.501-3.324
	l1.849-3.234h5.646L39.78,25.572z M43.073,13.844h7.345l-2.802,3.127h-6.332L43.073,13.844z M19.892,16.985l-2.816-3.142h23.683
	l-1.786,3.127h-19.01C19.937,16.971,19.917,16.983,19.892,16.985z M33.747,32.175L21.718,18.969h16.102l-1.308,2.244
	c-0.395-0.104-0.802-0.178-1.23-0.178c-2.496,0-4.502,2.006-4.502,4.492c0,2.47,2.006,4.474,4.502,4.474
	c0.146,0,0.325-0.027,0.468-0.043L33.747,32.175z"></path>
</svg>