<svg xmlns="http://www.w3.org/2000/svg" xmlns:xlink="http://www.w3.org/1999/xlink" x="0px" y="0px" width="56px" height="66px" viewBox="0 0 56 66" enable-background="new 0 0 56 66" xml:space="preserve">
<path fill="#E25540" d="M53.019,42.186c-0.057-0.259-0.286-0.462-0.558-0.494c-0.503-0.057-1.018-0.117-1.545-0.18
	c-5.131-0.602-11.513-1.35-17.432-0.795c-6.95,0.652-11.857,2.943-14.998,7.004c-0.024,0.03-0.037,0.061-0.047,0.088
	c-0.001,0.002-0.002,0.004-0.003,0.007c-0.538,0.289-1.011,0.68-1.47,1.057c-0.495,0.407-1.006,0.828-1.6,1.126l-0.062,0.031
	c0.417-0.604,0.815-1.229,1.202-1.836c1.136-1.784,2.311-3.628,3.997-5.014c0.682-0.559,1.426-1.049,2.146-1.521
	c0.956-0.629,1.944-1.278,2.798-2.101c2.795-2.684,4.589-6.386,6.171-9.651c0.028-0.059,0.04-0.114,0.048-0.172
	c0.03-0.037,0.054-0.083,0.074-0.137c4.286-0.618,8.053-2.146,11.196-4.543c3.384-2.582,5.745-6.211,8.029-9.722
	c0.513-0.79,1.044-1.604,1.573-2.39c0.125-0.185,0.124-0.404-0.002-0.592c-0.145-0.211-0.41-0.321-0.649-0.27
	c-0.626,0.14-1.282,0.251-1.978,0.368c-1.881,0.319-3.824,0.65-5.362,1.56c-1.216,0.719-2.358,1.705-3.465,2.659
	c-0.64,0.552-1.3,1.121-1.955,1.62c-3.289,2.508-7.745,6.366-8.477,10.903c-0.005,0.029-0.003,0.055,0,0.073
	c0,0.001-0.001,0.003-0.001,0.003c-0.014,0.014-0.029,0.033-0.043,0.06l-0.041,0.085c-1.687,3.479-3.597,7.422-6.686,9.988
	c-0.684,0.567-1.44,1.063-2.17,1.542c-0.864,0.565-1.757,1.15-2.545,1.864c0.041-0.604,0.023-1.229-0.056-1.899
	c-0.174-1.487-0.116-2.578,0.202-3.756c0.219-0.084,0.348-0.275,0.344-0.521c-0.002-0.19,0.005-0.395,0.022-0.642
	c0.539-0.897,1.201-1.743,1.84-2.562c0.625-0.799,1.271-1.625,1.819-2.516c1.219-1.979,1.891-4.394,1.999-7.178
	c0.142-3.69-0.394-7.419-0.912-11.024c-0.479-3.335-0.974-6.783-0.936-10.204c0.004-0.26-0.159-0.475-0.414-0.547
	c-0.217-0.063-0.512-0.011-0.671,0.251c-2.808,4.616-5.521,9.835-6.354,16.707c-0.344,2.841-0.734,6.061-0.372,9.18
	c0.197,1.695,0.609,3.368,1.007,4.986c0.364,1.479,0.74,3.011,0.95,4.552c-0.076,0.24-0.144,0.486-0.201,0.729
	c-0.074,0.324,0.11,0.561,0.339,0.662c-0.01,0.298-0.002,0.571,0.024,0.835c0.024,0.242,0.051,0.481,0.077,0.715
	c0.132,1.16,0.255,2.256-0.08,3.457c-0.023,0.081-0.028,0.16-0.015,0.241c-0.927,1.107-1.735,2.332-2.517,3.517
	c-1.075,1.629-2.186,3.313-3.62,4.716c-0.626,0.612-1.254,1.254-1.914,1.958c-0.058-0.522-0.004-1.003,0.057-1.551
	c0.023-0.204,0.046-0.416,0.065-0.641c0.071-0.846,0.011-1.688-0.184-2.577c1.528-1.303,2.233-3.348,1.797-5.221
	c-0.475-2.043-2.421-3.472-4.339-3.2c-1.022,0.148-1.788,0.558-2.276,1.214c-0.496,0.669-0.674,1.586-0.515,2.649
	c0.161,1.064,0.422,2.289,1.133,3.298c0.514,0.729,1.163,1.06,1.85,1.412c0.417,0.213,0.848,0.434,1.25,0.752
	c0.029,0.022,0.057,0.036,0.083,0.046c0.094,0.798,0.064,1.63-0.091,2.543c-0.164,0.957-0.094,1.431,0.202,2.333
	c-2.203,2.481-3.861,4.881-5.215,7.544c-0.28,0.053-0.473,0.26-0.495,0.537l-0.053,0.683c-0.023,0.302,0.204,0.5,0.44,0.562
	c0.055,0.015,0.111,0.022,0.169,0.022c0.189,0,0.382-0.082,0.479-0.29c1.875-3.998,4.519-6.884,7.319-9.938
	c0.339-0.371,0.68-0.743,1.022-1.12c0.094-0.045,0.165-0.102,0.221-0.176c0.744-0.98,1.642-1.451,2.593-1.948
	c0.346-0.18,0.704-0.368,1.067-0.585c0.444-0.266,0.843-0.605,1.229-0.932c0.605-0.515,1.175-1.001,1.918-1.242
	c4.696,1.205,10.875,2.438,17.053,1.287c5.93-1.104,11.065-4.012,16.239-7.149C52.969,42.643,53.07,42.422,53.019,42.186z
	 M50.692,42.652c-3.843,2.296-8.348,4.808-13.339,5.911c-6.313,1.395-12.517,0.229-17.239-0.958
	c3.849-4.095,10.02-5.177,14.978-5.659c5.241-0.509,10.502,0.106,15.589,0.704L50.692,42.652z M20.636,32.104
	c0.406-1.185,0.826-2.408,0.956-3.717c0.151-1.517,0.016-3.098-0.114-4.627c-0.104-1.214-0.211-2.468-0.175-3.682
	c0.011-0.378-0.277-0.56-0.548-0.566c-0.007,0-0.013,0-0.02,0c-0.292,0-0.587,0.19-0.597,0.562
	c-0.035,1.171,0.061,2.404,0.153,3.596c0.158,2.038,0.322,4.147-0.149,6.073c-0.19,0.775-0.44,1.526-0.681,2.251
	c-0.4,1.202-0.778,2.337-0.914,3.599c-0.02,0.033-0.039,0.067-0.057,0.102c-0.211-1.073-0.472-2.153-0.725-3.201
	c-0.081-0.336-0.163-0.674-0.243-1.013c-0.75-3.16-0.931-6.38-0.568-10.134c0.583-6.053,2.205-11.073,5.41-16.742
	c0.119,2.815,0.512,5.636,0.893,8.366c0.438,3.142,0.891,6.388,0.924,9.618c0.043,4.4-1.506,7.349-3.848,10.416
	C20.431,32.701,20.534,32.399,20.636,32.104z M36.889,25.477c1.439-0.877,2.929-1.783,4.131-3.026
	c0.262-0.271,0.185-0.62-0.027-0.825c-0.107-0.104-0.254-0.175-0.41-0.175c-0.13,0-0.267,0.052-0.389,0.178
	c-1.188,1.229-2.667,2.128-4.098,2.997c-1.217,0.739-2.471,1.502-3.55,2.467c1.624-3.457,5.231-6.388,8.57-8.807
	c0.577-0.419,1.147-0.932,1.699-1.429c0.746-0.671,1.519-1.366,2.321-1.84c1.405-0.833,3.293-1.149,5.119-1.454
	c0.182-0.031,0.362-0.062,0.541-0.092c-0.295,0.453-0.59,0.91-0.886,1.371c-1.922,2.986-3.909,6.076-6.56,8.367
	c-2.914,2.521-6.373,4.201-10.285,4.997C34.196,27.115,35.563,26.283,36.889,25.477z M7.578,48.727c0.066,0,0.134-0.012,0.201-0.036
	c0.211-0.075,0.379-0.262,0.416-0.465c0.033-0.178-0.034-0.348-0.187-0.477c-0.438-0.374-0.69-0.816-0.75-1.315
	c-0.014-0.11-0.02-0.214-0.025-0.315c-0.019-0.332-0.038-0.646-0.314-0.961c-0.243-0.274-0.565-0.213-0.762-0.039
	c-0.225,0.199-0.325,0.565-0.071,0.854c0.022,0.039,0.016,0.233,0.012,0.338c-0.002,0.087-0.005,0.16,0,0.208
	c0.028,0.273,0.089,0.535,0.184,0.778c0.162,0.42,0.408,0.788,0.724,1.103c-0.125-0.098-0.243-0.203-0.352-0.322
	c-0.712-0.788-1.368-2.502-1.209-3.795c0.076-0.621,0.324-1.077,0.736-1.354c0.457-0.307,0.947-0.462,1.44-0.462
	c0.347,0,0.695,0.077,1.033,0.231c0.936,0.429,1.597,1.369,1.727,2.454c0.176,1.467-0.437,2.868-1.68,3.849
	c-0.07,0.056-0.124,0.122-0.152,0.184c-0.013,0.018-0.024,0.036-0.033,0.056c-0.116-0.06-0.234-0.115-0.352-0.173
	c-0.238-0.116-0.469-0.231-0.69-0.358C7.509,48.715,7.542,48.727,7.578,48.727z"></path>
</svg>