<svg xmlns="http://www.w3.org/2000/svg" xmlns:xlink="http://www.w3.org/1999/xlink" x="0px" y="0px" width="120px" height="150px" viewBox="0 0 120 150" enable-background="new 0 0 120 150" xml:space="preserve">
<path fill="#E35640" d="M4.899,95.992c11.579,7.024,23.072,13.533,36.342,16.002c13.825,2.574,27.655-0.185,38.164-2.882
	c1.663,0.542,2.94,1.629,4.294,2.778c0.863,0.733,1.756,1.493,2.749,2.089c0.815,0.484,1.614,0.904,2.388,1.309
	c2.131,1.11,4.142,2.164,5.804,4.357c0.128,0.169,0.286,0.295,0.496,0.396c0.766,0.843,1.529,1.676,2.288,2.505
	c6.267,6.837,12.185,13.296,16.377,22.242c0.218,0.463,0.651,0.649,1.072,0.649c0.13,0,0.258-0.018,0.38-0.05
	c0.528-0.139,1.038-0.582,0.985-1.257l-0.119-1.527c-0.049-0.62-0.48-1.085-1.108-1.202c-3.028-5.961-6.742-11.329-11.671-16.884
	c0.662-2.02,0.818-3.08,0.453-5.223c-0.348-2.044-0.415-3.905-0.205-5.688c0.058-0.024,0.121-0.053,0.184-0.104
	c0.902-0.713,1.865-1.208,2.8-1.684c1.538-0.787,2.991-1.531,4.14-3.16c1.594-2.255,2.178-4.996,2.537-7.379
	c0.357-2.382-0.041-4.432-1.152-5.931c-1.094-1.47-2.807-2.385-5.094-2.716c-4.293-0.607-8.647,2.591-9.712,7.162
	c-0.976,4.192,0.603,8.769,4.021,11.685c-0.436,1.988-0.57,3.874-0.414,5.766c0.045,0.504,0.098,0.978,0.147,1.436
	c0.139,1.226,0.258,2.301,0.127,3.47c-1.477-1.575-2.881-3.013-4.281-4.382c-3.211-3.139-5.697-6.908-8.104-10.553
	c-1.748-2.65-3.558-5.393-5.63-7.87c0.026-0.182,0.017-0.36-0.033-0.54c-0.751-2.689-0.475-5.141-0.181-7.737
	c0.059-0.524,0.118-1.057,0.171-1.602c0.06-0.591,0.076-1.203,0.056-1.866c0.512-0.229,0.925-0.758,0.759-1.482
	c-0.128-0.546-0.28-1.096-0.448-1.635c0.469-3.447,1.311-6.873,2.125-10.186c0.893-3.62,1.813-7.362,2.253-11.159
	c0.813-6.979-0.062-14.186-0.83-20.543c-1.864-15.381-7.937-27.06-14.221-37.392c-0.354-0.584-1.015-0.702-1.502-0.561
	c-0.571,0.161-0.935,0.643-0.927,1.226c0.087,7.655-1.021,15.372-2.094,22.834c-1.156,8.069-2.356,16.412-2.038,24.673
	c0.24,6.232,1.744,11.638,4.472,16.064c1.227,1.992,2.674,3.842,4.07,5.628c1.433,1.833,2.913,3.728,4.118,5.735
	c0.038,0.552,0.054,1.008,0.049,1.434c-0.007,0.548,0.28,0.978,0.771,1.167c0.713,2.634,0.843,5.077,0.452,8.403
	c-0.175,1.503-0.217,2.899-0.125,4.254c-1.763-1.6-3.762-2.908-5.696-4.176c-1.634-1.071-3.327-2.179-4.857-3.45
	c-6.914-5.741-11.188-14.566-14.961-22.352l-0.093-0.19c-0.03-0.061-0.066-0.104-0.098-0.135c0,0-0.001-0.003-0.001-0.004
	c0.006-0.044,0.011-0.099,0-0.166c-1.636-10.152-11.61-18.79-18.97-24.4c-1.469-1.118-2.945-2.392-4.376-3.626
	c-2.475-2.136-5.034-4.345-7.754-5.951c-3.444-2.034-7.794-2.775-12-3.49c-1.557-0.264-3.024-0.514-4.426-0.824
	c-0.536-0.114-1.133,0.131-1.454,0.604c-0.281,0.417-0.284,0.911-0.006,1.324c1.188,1.756,2.375,3.581,3.521,5.345
	c5.112,7.856,10.396,15.982,17.971,21.76c7.035,5.363,15.465,8.784,25.057,10.167c0.044,0.119,0.1,0.222,0.165,0.307
	c0.018,0.127,0.042,0.254,0.108,0.386c3.541,7.307,7.555,15.591,13.81,21.6c1.911,1.838,4.123,3.291,6.261,4.698
	c1.611,1.058,3.279,2.155,4.804,3.405c3.774,3.102,6.402,7.229,8.944,11.223c0.866,1.356,1.76,2.757,2.689,4.108l-0.137-0.07
	c-1.331-0.667-2.475-1.609-3.582-2.521c-1.025-0.844-2.087-1.719-3.29-2.364c0-0.006-0.003-0.011-0.006-0.016
	c-0.023-0.062-0.051-0.128-0.105-0.197c-7.03-9.087-18.009-14.216-33.563-15.674c-13.248-1.242-27.531,0.433-39.012,1.78
	c-1.182,0.137-2.334,0.273-3.458,0.402c-0.61,0.07-1.123,0.524-1.251,1.104C4.176,95.199,4.403,95.691,4.899,95.992z M9.524,95.71
	c11.385-1.337,23.157-2.715,34.888-1.575c11.094,1.079,24.903,3.498,33.519,12.662c-10.569,2.661-24.452,5.268-38.584,2.145
	C28.18,106.474,18.1,100.853,9.499,95.713L9.524,95.71z M77.443,74.122c-5.242-6.866-8.708-13.464-8.61-23.313
	c0.073-7.229,1.087-14.495,2.066-21.522c0.854-6.111,1.733-12.425,2-18.725C80.072,23.248,83.7,34.485,85.007,48.03
	c0.809,8.402,0.404,15.608-1.274,22.679c-0.179,0.759-0.36,1.515-0.542,2.266c-0.565,2.344-1.15,4.762-1.622,7.165
	c-0.042-0.076-0.085-0.153-0.128-0.228c-0.306-2.821-1.151-5.363-2.047-8.054c-0.54-1.623-1.098-3.3-1.523-5.038
	c-1.056-4.308-0.688-9.028-0.333-13.591c0.207-2.665,0.421-5.425,0.344-8.046c-0.025-0.833-0.685-1.257-1.338-1.257
	c-0.015,0-0.029,0-0.044,0c-0.607,0.017-1.251,0.422-1.227,1.267c0.079,2.716-0.159,5.524-0.392,8.238
	c-0.294,3.423-0.596,6.964-0.259,10.357c0.291,2.926,1.23,5.665,2.141,8.316C76.99,72.767,77.221,73.443,77.443,74.122z
	 M48.942,63.385c-8.754-1.782-16.495-5.543-23.017-11.185c-5.932-5.128-10.379-12.043-14.682-18.729
	c-0.66-1.028-1.318-2.052-1.98-3.064c0.399,0.067,0.805,0.137,1.212,0.206c4.086,0.68,8.311,1.389,11.456,3.25
	c1.797,1.065,3.524,2.62,5.195,4.121c1.234,1.111,2.512,2.261,3.803,3.196c7.472,5.416,15.545,11.974,19.179,19.712
	c-2.414-2.163-5.222-3.869-7.944-5.524c-3.202-1.945-6.511-3.957-9.171-6.707c-0.273-0.282-0.578-0.396-0.872-0.396
	c-0.347,0-0.675,0.159-0.917,0.392c-0.473,0.458-0.645,1.237-0.06,1.846c2.691,2.782,6.023,4.81,9.246,6.771
	C43.355,59.078,46.415,60.943,48.942,63.385z M106.219,109.265c-0.495,0.283-1.012,0.543-1.545,0.802
	c-0.264,0.128-0.526,0.254-0.787,0.387c-0.02-0.045-0.043-0.086-0.072-0.125c-0.063-0.14-0.183-0.285-0.341-0.41
	c-2.78-2.194-4.153-5.332-3.76-8.611c0.29-2.431,1.772-4.534,3.864-5.493c0.758-0.346,1.537-0.518,2.313-0.518
	c1.103,0,2.2,0.346,3.222,1.031c0.924,0.622,1.479,1.643,1.648,3.033c0.354,2.895-1.111,6.727-2.705,8.489
	c-0.244,0.271-0.51,0.507-0.787,0.724c0.706-0.704,1.257-1.528,1.619-2.467c0.21-0.544,0.35-1.13,0.412-1.742
	c0.012-0.105,0.007-0.271,0-0.466c-0.008-0.233-0.022-0.668,0.027-0.756c0.567-0.643,0.343-1.467-0.159-1.91
	c-0.439-0.39-1.163-0.526-1.706,0.088c-0.621,0.703-0.662,1.407-0.705,2.15c-0.012,0.225-0.024,0.458-0.054,0.705
	c-0.135,1.116-0.701,2.107-1.681,2.944c-0.342,0.288-0.49,0.667-0.418,1.066c0.084,0.454,0.457,0.873,0.932,1.042
	c0.148,0.053,0.3,0.079,0.448,0.079C106.065,109.308,106.14,109.28,106.219,109.265z"></path>
</svg>